<?xml version="1.0" encoding="utf-8"?>
<!-- Generator: Adobe Illustrator 24.1.2, SVG Export Plug-In . SVG Version: 6.00 Build 0)  -->
<svg version="1.1" id="Layer_1" xmlns="http://www.w3.org/2000/svg" xmlns:xlink="http://www.w3.org/1999/xlink" x="0px" y="0px"
	 viewBox="0 0 254 254" style="enable-background:new 0 0 254 254;" xml:space="preserve">
<style type="text/css">
	.st0{fill:#282828;}
	.st1{fill:#FFFFFF;}
</style>
<circle class="st0" cx="127" cy="127" r="127"/>
<g id="Pictogram">
	<path class="st1" d="M181.5,67.3h-10.5v0h-15.4v0h-10.4c0,0,9.3,0,10.4,8.8v10.8v6.9v0.7v70.3c0,14.4-2.4,24.2-12.2,33.9
		c17,0,27.6-11.9,27.6-31.6V94.5v-0.7v-6.1v-10C171.1,67.3,181.5,67.3,181.5,67.3z"/>
	<path class="st1" d="M138,162.3h-20.7l-26.4-26.4c0,0-10.3-9.3,0-19.7L138,162.3z"/>
	<path class="st1" d="M127.4,67.3h-22L77.4,95.3c0,0-11,9.9,0,20.9L127.4,67.3z"/>
</g>
</svg>
