<?xml version="1.0" encoding="utf-8"?>
<!-- Generator: Adobe Illustrator 24.1.2, SVG Export Plug-In . SVG Version: 6.00 Build 0)  -->
<svg version="1.1" id="Layer_1" xmlns="http://www.w3.org/2000/svg" xmlns:xlink="http://www.w3.org/1999/xlink" x="0px" y="0px"
	 viewBox="0 0 155.8 187.9" style="enable-background:new 0 0 155.8 187.9;" xml:space="preserve">
<g>
	<path d="M155.8,0h-15v0h-22v0H104c0,0,13.3,0,14.8,12.6v15.5v9.8v1v100.4c0,20.6-3.4,34.6-17.4,48.5c24.4,0,39.5-17,39.5-45.1V39
		v-1v-8.7V15C140.9,0,155.8,0,155.8,0z"/>
	<path d="M93.6,135.8H64L26.3,98.1c0,0-14.8-13.3,0-28.1L93.6,135.8z"/>
	<path d="M78.5,0L47.1,0L7,40.1c0,0-15.7,14.2,0,29.9L78.5,0z"/>
</g>
</svg>
